# xmcd
#
# Track frame offsets:
#	150
#	14330
#	27590
#	40275
#	52945
#	66360
#	78804
#	92185
#	105432
#	119727
#	135250
#	150280
#	166692
#	185920
#	197595
#	213800
#	227165
#	239782
#	252415
#	265825
#
# Disc length: 3775
#
# Revision: 2
# Processed by: cddbd v1.5.1PL0 Copyright (c) Steve Scherf et al.
# Submitted via: OrangeCD 4.2
# Normalized: r0:DSETVAR1,TDELIM( - ),TSWAP
#
DISCID=0e0ebd14
DTITLE=Various Artist - Great Ladies of Song
DYEAR=1999
DGENRE=Blues
TTITLE0=Etta James - I Just Want To Make Love To You
TTITLE1=Nina Simone - Feeling Good
TTITLE2=Dinah Washington - Mad About the Boy
TTITLE3=Doris Day - You Do Something To Me
TTITLE4=Lena Horne - Unchained Melody
TTITLE5=Julie London - Cry Me A River
TTITLE6=Patsy Cline - Crazy
TTITLE7=Billie Holiday - That Ole Devil Called Love
TTITLE8=Sarah Vaughan - I'm Gonna Sit Right Down and Write Myself a Letter
TTITLE9=Helen Forrest - It Had to be You
TTITLE10=Peggy Lee - Fever
TTITLE11=Nina Simone - My Baby Just Cares for Me
TTITLE12=Ella Fitzgerald - I'm Just a Lucky So and So
TTITLE13=Muriel Smith - Hold Me, Thrill Me, Kiss Me
TTITLE14=Ella Fitzgerald - Ev'ry Time We Say Godbye
TTITLE15=Ella Fitzgerald - Let's Face the Music and Dance
TTITLE16=Julie London - In the Still of the Night
TTITLE17=Astrud Gilberto and Stan Getz - The Girl from Ipanema
TTITLE18=Billie Holiday - I Only Have Eyes for You
TTITLE19=Billie Holiday - The Lady Sings the Blues
EXTD=
EXTT0=
EXTT1=
EXTT2=
EXTT3=
EXTT4=
EXTT5=
EXTT6=
EXTT7=
EXTT8=
EXTT9=
EXTT10=
EXTT11=
EXTT12=
EXTT13=
EXTT14=
EXTT15=
EXTT16=
EXTT17=
EXTT18=
EXTT19=
PLAYORDER=
